<svg xmlns="http://www.w3.org/2000/svg" xmlns:xlink="http://www.w3.org/1999/xlink" width="714" height="386.67" viewBox="0 0 714 386.67">
  <defs>
    <linearGradient id="linear-gradient" x1="0.985" y1="-0.028" x2="0" y2="0.951" gradientUnits="objectBoundingBox">
      <stop offset="0" stop-color="#0bebe1"/>
      <stop offset="1" stop-color="#067671"/>
    </linearGradient>
  </defs>
  <g id="Group_6" data-name="Group 6" transform="translate(-1062 -347)">
    <path id="Path_1" data-name="Path 1" d="M178.693,386.991C115.781,380.707,58.745,347.56,28,299.411c-12.545-19.644-22.237-44.45-25.288-64.723C1.339,225.6.406,204.414.838,192.256,2.4,148.266,12.655,114.149,33.394,83.933c7.262-10.58,12-16.128,22.216-25.986,16.32-15.756,32.734-26.882,56-37.956,20.756-9.882,37.623-15.035,59.566-18.2C182.358.18,207.9.339,219.543,2.093c37.182,5.6,69.9,21.54,101.115,49.254,33.317,29.583,55.406,64.132,63.467,99.27,3.029,13.2,3.57,18.407,3.6,34.631.036,16.447-.388,20.963-3.334,35.649l-1.88,9.371-7,1.359c-19.118,3.713-43.6,10.36-59.041,16.028-11.913,4.374-14.331,5.363-31.588,12.919-16.551,7.247-24.052,10.112-33.022,12.614-18.747,5.229-38.763,5.673-52.284,1.158-18.2-6.076-31.81-20.6-34.771-37.1-.994-5.542-.4-16.342,1.222-22.147q5.848-20.952,25.873-43.193c2.471-2.745,4.545-4.937,4.61-4.873s.863,6.03,1.774,13.256,1.7,13.2,1.754,13.281a44.979,44.979,0,0,0,5.16-1.651,90.84,90.84,0,0,1,50.213-3.171c8.365,1.794,23.789,6.669,38.8,12.262a149.019,149.019,0,0,0,14.44,4.73c10.252,2.112,27,.027,37.68-4.688,2.909-1.285,3.128-1.536,3.9-4.493,1.052-4,1.064-15.394.017-20.437l-.8-3.874-11.828-7.888c-71.248-47.511-131.021-75.664-181.823-85.634-13.815-2.712-37.886-5.038-37.886-3.662a4.77,4.77,0,0,1-.322,1.414c-.233.591,6.707,4.174,25.257,13.041,14.069,6.725,25.584,12.358,25.59,12.518s-4.929,1.962-10.967,4c-17.2,5.814-28.734,10.407-40.465,16.122-9.7,4.727-23.747,12.887-23.758,13.805,0,.194,5.251.831,11.676,1.417l11.68,1.065-6.422,6.758c-8.657,9.112-13.67,14.946-25.878,30.116L73.973,188.168l9.037.161c4.971.088,9.032.351,9.025.584s-4.18,14.218-9.273,31.08-9.209,30.708-9.146,30.771,4.407-.818,9.653-1.955c6.207-1.346,9.671-1.858,9.92-1.467.211.33,1.294,13.955,2.408,30.276s2.111,29.773,2.218,29.892a98.971,98.971,0,0,0,8.4-6.57c4.516-3.732,8.386-6.783,8.6-6.78s7.7,11.026,16.637,24.5,16.441,24.5,16.679,24.521,3.731-3.8,7.762-8.475c5.864-6.805,7.471-8.351,8.043-7.737.393.422,3.394,4.051,6.667,8.066s9.072,10.356,12.884,14.094l6.93,6.795,14.742.011c22.9.017,37.428,2.391,56.718,9.276l5.876,2.1-1.965,1.434c-11.595,8.461-26.3,14.062-44.986,17.14-5.89.97-10.717,1.28-22.262,1.432-8.108.107-17.043-.035-19.856-.317Z" transform="translate(1224.269 346.326)" opacity="0.6" fill="url(#linear-gradient)"/>
    <text id="connect" transform="translate(1419 590)" fill="none" stroke="#fff" stroke-width="2" font-size="151" font-family="Kontora-ExtraBold, Kontora" font-weight="800" letter-spacing="0.178em" opacity="0.8"><tspan x="-354.027" y="0">connect</tspan></text>
  </g>
</svg>
